# xmcd
#
# Track frame offsets:
#	150
#	44596
#	82443
#	102751
#	117372
#	161057
#	184253
#	205790
#	245986
#	269315
#	291447
#	305688
#
# Disc length: 4283 seconds
#
# Revision: 1
# Processed by: cddbd v1.5.2PL0 Copyright (c) Steve Scherf et al.
# Submitted via: audiograbber 1.83.01
#
DISCID=bf10b90c
DTITLE=Grateful Dead - 71-12-14 Hill Auditorium, Ann Arbor MI
DYEAR=1900
DGENRE=
TTITLE0=Truckin'
TTITLE1=Sugaree
TTITLE2=Mr Charlie
TTITLE3=BIODTL
TTITLE4=Loser
TTITLE5=Jack Straw
TTITLE6=Next Time You See Me
TTITLE7=Tennessee Jed
TTITLE8=El Paso
TTITLE9=Big Railroad Blues
TTITLE10=Me and My Uncle
TTITLE11=Run Rudolph Run
EXTD=
EXTT0=
EXTT1=
EXTT2=
EXTT3=
EXTT4=
EXTT5=
EXTT6=
EXTT7=
EXTT8=
EXTT9=
EXTT10=
EXTT11=
PLAYORDER=
